HIERARCHY
ROOT newVegas:Hips
{
	OFFSET 0.000000 96.479958 0.000000
	CHANNELS 6 Xposition Yposition Zposition Xrotation Yrotation Zrotation
	JOINT newVegas:Pelvis
	{
		OFFSET 0.000000 0.000000 0.000000
		CHANNELS 3 Xrotation Yrotation Zrotation
		JOINT newVegas:LeftUpLeg
		{
			OFFSET 18.735201 -5.666702 -4.541200
			CHANNELS 3 Xrotation Yrotation Zrotation
			JOINT newVegas:LeftLeg
			{
				OFFSET -0.021200 -31.938179 0.493100
				CHANNELS 3 Xrotation Yrotation Zrotation
				JOINT newVegas:LeftFoot
				{
					OFFSET 0.021200 -31.938179 -4.336299
					CHANNELS 3 Xrotation Yrotation Zrotation
					JOINT newVegas:LeftToeBase
					{
						OFFSET 0.943001 -26.722000 15.023500
						CHANNELS 3 Xrotation Yrotation Zrotation
						End Site
						{
							OFFSET 0.000000 30.670183 0.000000
						}
					}
				}
				JOINT newVegas:Left_PantLeg
				{
					OFFSET 0.663870 -9.044666 -1.108900
					CHANNELS 3 Xrotation Yrotation Zrotation
					End Site
					{
						OFFSET 1.415995 20.635357 0.000000
					}
				}
			}
		}
		JOINT newVegas:RightUpLeg
		{
			OFFSET -18.735201 -5.666702 -4.541200
			CHANNELS 3 Xrotation Yrotation Zrotation
			JOINT newVegas:RightLeg
			{
				OFFSET 0.018946 -31.938133 0.493100
				CHANNELS 3 Xrotation Yrotation Zrotation
				JOINT newVegas:RightFoot
				{
					OFFSET -0.018946 -31.938126 -4.336299
					CHANNELS 3 Xrotation Yrotation Zrotation
					JOINT newVegas:RightToeBase
					{
						OFFSET -0.943001 -26.722004 15.023500
						CHANNELS 3 Xrotation Yrotation Zrotation
						End Site
						{
							OFFSET 0.000000 30.670187 0.000000
						}
					}
				}
				JOINT newVegas:Right_PantLeg
				{
					OFFSET -0.661674 -9.044716 -1.108900
					CHANNELS 3 Xrotation Yrotation Zrotation
					End Site
					{
						OFFSET -1.415958 20.635269 0.000000
					}
				}
			}
		}
	}
	JOINT newVegas:Spine
	{
		OFFSET 0.000000 10.199997 -0.299500
		CHANNELS 3 Xrotation Yrotation Zrotation
		JOINT newVegas:Spine1
		{
			OFFSET 0.000000 11.900002 -1.516600
			CHANNELS 3 Xrotation Yrotation Zrotation
			JOINT newVegas:Spine2
			{
				OFFSET 0.000000 13.600006 -2.842500
				CHANNELS 3 Xrotation Yrotation Zrotation
				JOINT newVegas:Neck
				{
					OFFSET 0.000000 9.624100 -2.890100
					CHANNELS 3 Xrotation Yrotation Zrotation
					JOINT newVegas:Head
					{
						OFFSET 0.000000 14.068802 -1.351900
						CHANNELS 3 Xrotation Yrotation Zrotation
						JOINT newVegas:Hair_Back
						{
							OFFSET 0.000000 3.231903 -17.524799
							CHANNELS 3 Xrotation Yrotation Zrotation
							End Site
							{
								OFFSET 0.000000 19.849884 0.000000
							}
						}
						JOINT newVegas:Hair_Front
						{
							OFFSET 0.000000 31.260406 4.573800
							CHANNELS 3 Xrotation Yrotation Zrotation
							JOINT newVegas:Hair_Front1
							{
								OFFSET 0.000000 2.284103 11.993300
								CHANNELS 3 Xrotation Yrotation Zrotation
								JOINT newVegas:Hair_Front2
								{
									OFFSET 0.000000 2.284103 11.993300
									CHANNELS 3 Xrotation Yrotation Zrotation
									End Site
									{
										OFFSET 0.000000 12.208862 0.000000
									}
								}
							}
						}
						JOINT newVegas:Jowel
						{
							OFFSET 0.000000 -7.458206 6.864100
							CHANNELS 3 Xrotation Yrotation Zrotation
							End Site
							{
								OFFSET 0.000000 19.849884 0.000000
							}
						}
					}
				}
				JOINT newVegas:LeftShoulder
				{
					OFFSET 15.263000 10.923401 -0.547700
					CHANNELS 3 Xrotation Yrotation Zrotation
					JOINT newVegas:LeftArm
					{
						OFFSET 25.438599 -2.830597 -13.032500
						CHANNELS 3 Xrotation Yrotation Zrotation
						JOINT newVegas:LeftForeArm
						{
							OFFSET 29.960503 0.000000 0.000000
							CHANNELS 3 Xrotation Yrotation Zrotation
							JOINT newVegas:LeftHand
							{
								OFFSET 27.849251 0.000000 0.000000
								CHANNELS 3 Xrotation Yrotation Zrotation
								JOINT newVegas:LeftHandThumb1
								{
									OFFSET 4.487587 -3.305161 6.305391
									CHANNELS 3 Xrotation Yrotation Zrotation
									JOINT newVegas:LeftHandThumb2
									{
										OFFSET 5.480453 -3.164139 3.164143
										CHANNELS 3 Xrotation Yrotation Zrotation
										JOINT newVegas:LeftHandThumb3
										{
											OFFSET 5.159721 -2.978973 2.978967
											CHANNELS 3 Xrotation Yrotation Zrotation
											End Site
											{
												OFFSET 2.494507 5.926697 1.738678
											}
										}
									}
								}
								JOINT newVegas:LeftHandIndex1
								{
									OFFSET 18.578728 -0.527832 5.208049
									CHANNELS 3 Xrotation Yrotation Zrotation
									JOINT newVegas:LeftHandIndex2
									{
										OFFSET 3.192009 0.000000 0.000000
										CHANNELS 3 Xrotation Yrotation Zrotation
										JOINT newVegas:LeftHandIndex3
										{
											OFFSET 3.835129 0.000000 0.000000
											CHANNELS 3 Xrotation Yrotation Zrotation
											End Site
											{
												OFFSET -0.034599 3.816971 0.371180
											}
										}
									}
								}
								JOINT newVegas:LeftHandMiddle1
								{
									OFFSET 18.476105 0.000000 0.000000
									CHANNELS 3 Xrotation Yrotation Zrotation
									JOINT newVegas:LeftHandMiddle2
									{
										OFFSET 3.324875 0.000000 0.000000
										CHANNELS 3 Xrotation Yrotation Zrotation
										JOINT newVegas:LeftHandMiddle3
										{
											OFFSET 4.596550 0.000000 0.000000
											CHANNELS 3 Xrotation Yrotation Zrotation
											End Site
											{
												OFFSET 0.057701 4.578827 0.399218
											}
										}
									}
								}
								JOINT newVegas:LeftHandRing1
								{
									OFFSET 17.732719 0.121887 -4.201567
									CHANNELS 3 Xrotation Yrotation Zrotation
									JOINT newVegas:LeftHandRing2
									{
										OFFSET 2.733170 0.000000 0.000000
										CHANNELS 3 Xrotation Yrotation Zrotation
										JOINT newVegas:LeftHandRing3
										{
											OFFSET 3.178268 0.000000 0.000000
											CHANNELS 3 Xrotation Yrotation Zrotation
											End Site
											{
												OFFSET 0.119102 3.170624 0.185394
											}
										}
									}
								}
								JOINT newVegas:LeftHandPinky1
								{
									OFFSET 15.989624 -0.606689 -7.535461
									CHANNELS 3 Xrotation Yrotation Zrotation
									JOINT newVegas:LeftHandPinky2
									{
										OFFSET 2.538986 0.000000 0.000000
										CHANNELS 3 Xrotation Yrotation Zrotation
										JOINT newVegas:LeftHandPinky3
										{
											OFFSET 2.593102 0.000000 0.000000
											CHANNELS 3 Xrotation Yrotation Zrotation
											End Site
											{
												OFFSET -0.150902 2.584198 0.152708
											}
										}
									}
								}
							}
							JOINT newVegas:Left_Sleeve
							{
								OFFSET 0.267448 -0.649796 0.577675
								CHANNELS 3 Xrotation Yrotation Zrotation
								End Site
								{
									OFFSET 0.000000 15.991241 0.000000
								}
							}
							JOINT newVegas:Left_CapeC
							{
								OFFSET 15.715958 -8.608795 -6.935905
								CHANNELS 3 Xrotation Yrotation Zrotation
								JOINT newVegas:Left_CapeC1
								{
									OFFSET 0.000000 -8.688499 0.000000
									CHANNELS 3 Xrotation Yrotation Zrotation
									End Site
									{
										OFFSET 0.000000 8.688499 0.000000
									}
								}
							}
						}
						JOINT newVegas:Left_CapeB
						{
							OFFSET 26.118385 -8.608795 -7.079235
							CHANNELS 3 Xrotation Yrotation Zrotation
							JOINT newVegas:Left_CapeB1
							{
								OFFSET 0.000000 -8.688499 0.000000
								CHANNELS 3 Xrotation Yrotation Zrotation
								End Site
								{
									OFFSET 0.000000 8.688499 0.000000
								}
							}
						}
						JOINT newVegas:Left_CapeA
						{
							OFFSET 5.115639 -8.608795 -10.395809
							CHANNELS 3 Xrotation Yrotation Zrotation
							JOINT newVegas:Left_CapeA1
							{
								OFFSET 0.000000 -8.688499 0.000000
								CHANNELS 3 Xrotation Yrotation Zrotation
								End Site
								{
									OFFSET 0.000000 8.688499 0.000000
								}
							}
						}
					}
				}
				JOINT newVegas:RightShoulder
				{
					OFFSET -15.263000 10.923401 -0.547700
					CHANNELS 3 Xrotation Yrotation Zrotation
					JOINT newVegas:RightArm
					{
						OFFSET -25.438599 -2.830597 -13.032500
						CHANNELS 3 Xrotation Yrotation Zrotation
						JOINT newVegas:RightForeArm
						{
							OFFSET -29.960503 0.000000 0.000000
							CHANNELS 3 Xrotation Yrotation Zrotation
							JOINT newVegas:RightHand
							{
								OFFSET -27.849251 0.000000 0.000000
								CHANNELS 3 Xrotation Yrotation Zrotation
								JOINT newVegas:RightHandThumb1
								{
									OFFSET -4.487587 -3.305161 6.305391
									CHANNELS 3 Xrotation Yrotation Zrotation
									JOINT newVegas:RightHandThumb2
									{
										OFFSET -5.480453 -3.164139 3.164143
										CHANNELS 3 Xrotation Yrotation Zrotation
										JOINT newVegas:RightHandThumb3
										{
											OFFSET -5.159721 -2.978973 2.978967
											CHANNELS 3 Xrotation Yrotation Zrotation
											End Site
											{
												OFFSET -2.494507 5.926697 1.738678
											}
										}
									}
								}
								JOINT newVegas:RightHandIndex1
								{
									OFFSET -18.578728 -0.527832 5.208049
									CHANNELS 3 Xrotation Yrotation Zrotation
									JOINT newVegas:RightHandIndex2
									{
										OFFSET -3.192009 0.000000 0.000000
										CHANNELS 3 Xrotation Yrotation Zrotation
										JOINT newVegas:RightHandIndex3
										{
											OFFSET -3.835129 0.000000 0.000000
											CHANNELS 3 Xrotation Yrotation Zrotation
											End Site
											{
												OFFSET 0.034599 3.816971 0.371180
											}
										}
									}
								}
								JOINT newVegas:RightHandMiddle1
								{
									OFFSET -18.476105 0.000000 0.000000
									CHANNELS 3 Xrotation Yrotation Zrotation
									JOINT newVegas:RightHandMiddle2
									{
										OFFSET -3.324875 0.000000 0.000000
										CHANNELS 3 Xrotation Yrotation Zrotation
										JOINT newVegas:RightHandMiddle3
										{
											OFFSET -4.596550 0.000000 0.000000
											CHANNELS 3 Xrotation Yrotation Zrotation
											End Site
											{
												OFFSET -0.057701 4.578827 0.399218
											}
										}
									}
								}
								JOINT newVegas:RightHandRing1
								{
									OFFSET -17.732719 0.121887 -4.201567
									CHANNELS 3 Xrotation Yrotation Zrotation
									JOINT newVegas:RightHandRing2
									{
										OFFSET -2.733170 0.000000 0.000000
										CHANNELS 3 Xrotation Yrotation Zrotation
										JOINT newVegas:RightHandRing3
										{
											OFFSET -3.178268 0.000000 0.000000
											CHANNELS 3 Xrotation Yrotation Zrotation
											End Site
											{
												OFFSET -0.119102 3.170624 0.185394
											}
										}
									}
								}
								JOINT newVegas:RightHandPinky1
								{
									OFFSET -15.989624 -0.606689 -7.535461
									CHANNELS 3 Xrotation Yrotation Zrotation
									JOINT newVegas:RightHandPinky2
									{
										OFFSET -2.538986 0.000000 0.000000
										CHANNELS 3 Xrotation Yrotation Zrotation
										JOINT newVegas:RightHandPinky3
										{
											OFFSET -2.593102 0.000000 0.000000
											CHANNELS 3 Xrotation Yrotation Zrotation
											End Site
											{
												OFFSET 0.150902 2.584198 0.152708
											}
										}
									}
								}
							}
							JOINT newVegas:Right_CapeC
							{
								OFFSET -15.715958 -8.608795 -6.935905
								CHANNELS 3 Xrotation Yrotation Zrotation
								JOINT newVegas:Right_CapeC1
								{
									OFFSET 0.000000 -8.688499 0.000000
									CHANNELS 3 Xrotation Yrotation Zrotation
									End Site
									{
										OFFSET 0.000000 8.688499 0.000000
									}
								}
							}
							JOINT newVegas:Right_Sleeve
							{
								OFFSET -0.267448 -0.649994 0.577675
								CHANNELS 3 Xrotation Yrotation Zrotation
								End Site
								{
									OFFSET 0.000000 15.991302 0.000000
								}
							}
						}
						JOINT newVegas:Right_CapeA
						{
							OFFSET -5.115540 -8.608795 -10.395824
							CHANNELS 3 Xrotation Yrotation Zrotation
							JOINT newVegas:Right_CapeA1
							{
								OFFSET 0.000000 -8.688499 0.000000
								CHANNELS 3 Xrotation Yrotation Zrotation
								End Site
								{
									OFFSET 0.000000 8.688499 0.000000
								}
							}
						}
						JOINT newVegas:Right_CapeB
						{
							OFFSET -26.118187 -8.608795 -7.079266
							CHANNELS 3 Xrotation Yrotation Zrotation
							JOINT newVegas:Right_CapeB1
							{
								OFFSET 0.000000 -8.688499 0.000000
								CHANNELS 3 Xrotation Yrotation Zrotation
								End Site
								{
									OFFSET 0.000000 8.688499 0.000000
								}
							}
						}
					}
				}
				JOINT newVegas:Left_Collar
				{
					OFFSET 18.625099 8.655502 8.828100
					CHANNELS 3 Xrotation Yrotation Zrotation
					JOINT newVegas:Left_Collar1
					{
						OFFSET 14.783401 10.540405 -1.259500
						CHANNELS 3 Xrotation Yrotation Zrotation
						End Site
						{
							OFFSET 0.000000 18.199875 0.000000
						}
					}
				}
				JOINT newVegas:Collar_Back
				{
					OFFSET 0.000000 15.630707 -20.132601
					CHANNELS 3 Xrotation Yrotation Zrotation
					End Site
					{
						OFFSET 0.000000 22.523010 0.000000
					}
				}
				JOINT newVegas:Left_Peck
				{
					OFFSET 17.239599 -5.132599 25.482599
					CHANNELS 3 Xrotation Yrotation Zrotation
					End Site
					{
						OFFSET 0.000000 22.523010 0.000000
					}
				}
				JOINT newVegas:Right_Peck
				{
					OFFSET -17.239599 -5.132202 25.482599
					CHANNELS 3 Xrotation Yrotation Zrotation
					End Site
					{
						OFFSET 0.000000 22.523010 0.000000
					}
				}
				JOINT newVegas:Right_Collar
				{
					OFFSET -18.625099 8.655792 8.828100
					CHANNELS 3 Xrotation Yrotation Zrotation
					JOINT newVegas:Right_Collar1
					{
						OFFSET -14.783401 10.539993 -1.259500
						CHANNELS 3 Xrotation Yrotation Zrotation
						End Site
						{
							OFFSET 0.000000 18.199631 0.000000
						}
					}
				}
			}
		}
		JOINT newVegas:Belly
		{
			OFFSET 0.000000 -6.540398 9.014299
			CHANNELS 3 Xrotation Yrotation Zrotation
			End Site
			{
				OFFSET 0.000000 11.566666 0.000000
			}
		}
	}
	JOINT newVegas:ElvisFacialAnim_Joint
	{
		OFFSET 1.000000 -95.330101 -8.825800
		CHANNELS 3 Xrotation Yrotation Zrotation
		End Site
		{
			OFFSET 0.000000 35.315800 0.000000
		}
	}
}
MOTION
Frames: 4
Frame Time: 0.033333
-78.301880 44.819557 105.301445 45.833213 -62.124156 48.511804 -0.000001 -0.000001 -0.000000 -115.456042 -25.779958 37.369423 83.630441 -8.382365 -4.186158 24.666738 -15.173060 -20.468207 0.000000 0.000003 -0.000000 0.000003 0.000002 -0.000001 -118.139351 47.019582 -28.025788 89.468081 26.554876 4.959773 1.742600 9.481278 36.846948 -0.000000 0.000000 0.000000 -0.000001 0.000000 0.000000 11.404974 0.915039 0.570286 22.807747 1.752966 0.852351 22.807767 1.752950 0.852360 0.383327 -0.262562 -0.384234 0.383315 -0.262566 -0.384239 -0.000001 0.000000 0.000001 0.383376 -0.262617 -0.384206 0.383368 -0.262472 -0.384270 -0.000001 0.000001 -0.000001 -0.000001 0.000000 -0.000001 2.952589 -37.425089 5.039548 -63.993743 -27.668408 -48.849257 -0.023260 -34.956539 0.004103 -16.503414 14.138384 26.015188 17.848739 13.925935 6.041046 -0.797934 1.404628 -4.444378 -0.000000 0.000002 -0.000001 3.937101 12.745456 -33.718072 0.048269 0.683245 -38.311422 0.000000 -0.000001 -0.000003 3.870307 20.767863 -32.328945 -0.297895 -1.460283 -18.275494 -0.000002 0.000001 0.000002 9.820236 20.968573 -41.495629 -2.719773 -4.384231 -64.309578 0.000000 -0.000001 -0.000000 9.355104 14.737561 -36.869259 -1.037323 -4.468877 -36.917128 -0.000000 -0.000003 -0.000001 0.000001 -0.000001 0.000000 0.000001 -0.000001 0.000000 -0.000000 -0.000001 0.000001 -0.000002 0.000000 0.000001 -0.000002 0.000001 0.000001 -0.000002 0.000000 0.000001 -0.000002 -0.000000 0.000000 7.323704 35.739037 -19.830846 -21.017595 29.222818 16.446824 -0.058904 54.470516 -0.095654 58.222595 -19.338861 11.420992 -19.235775 7.931437 -3.892900 23.712525 -20.788876 5.178487 -0.000000 -0.000001 0.000001 -12.856810 3.508294 -39.084672 1.530283 -2.412856 43.866009 0.000001 -0.000001 0.000003 -3.065782 -3.304343 25.351429 -3.212174 4.015251 83.806544 0.000001 -0.000001 -0.000001 5.258998 -0.353290 35.250664 -5.530669 5.608899 81.742085 0.000001 0.000001 -0.000001 3.778849 10.774747 53.884076 -6.142617 -3.106968 43.019287 -0.000000 0.000001 0.000001 -0.000002 -0.000002 0.000001 -0.000002 -0.000002 0.000001 -0.000002 -0.000002 0.000002 0.000001 0.000001 0.000001 0.000001 0.000001 0.000001 0.000001 0.000001 0.000001 0.000001 0.000001 0.000001 0.000002 0.000001 -0.000002 0.000002 0.000001 -0.000002 0.000002 0.000001 -0.000002 0.000002 0.000001 -0.000002 0.000002 0.000001 -0.000002 0.000002 0.000001 -0.000002 0.000002 0.000001 -0.000002 -0.000000 0.000000 -0.000000 -0.000001 -0.000001 -0.000000 
-80.527557 43.836594 107.677055 48.523112 -63.965637 49.563298 -0.000000 0.000001 0.000000 -116.693905 -32.067752 39.212748 92.915612 -12.499272 -5.060149 18.666376 -12.566369 -21.528951 0.000000 0.000000 -0.000000 -0.000001 -0.000003 0.000001 -115.610569 46.466976 -30.200993 88.787084 28.907696 5.960463 1.844137 10.916153 37.460446 -0.000000 0.000001 0.000000 0.000001 0.000000 -0.000003 11.511410 0.495744 0.813784 23.017321 1.447546 1.353837 23.017312 1.447538 1.353855 0.389293 -0.412983 -0.202188 0.389320 -0.413019 -0.202163 -0.000001 0.000001 -0.000001 0.389278 -0.412967 -0.202190 0.389352 -0.412960 -0.202191 -0.000000 0.000001 0.000000 -0.000001 0.000001 -0.000002 2.167871 -36.832850 2.942160 -60.838933 -27.359171 -48.126770 -0.025965 -37.888323 0.005901 -20.079057 16.877817 27.104539 19.230246 14.046404 6.157649 -1.148128 1.727758 -5.168458 -0.000000 -0.000003 0.000000 6.824632 14.020465 -37.702310 0.408492 0.737532 -50.468961 0.000001 -0.000001 0.000003 6.570125 19.927990 -39.716150 -0.453539 -1.938682 -24.243251 -0.000001 -0.000000 -0.000006 15.594731 21.704314 -48.666549 -3.258219 -4.600732 -70.802089 0.000000 -0.000001 0.000000 11.228264 18.696290 -36.625144 -1.646551 -4.930711 -44.058702 -0.000000 -0.000003 -0.000001 -0.000000 0.000000 -0.000001 -0.000000 0.000000 -0.000001 -0.000001 0.000001 -0.000001 0.000001 -0.000001 -0.000001 0.000001 -0.000001 -0.000001 0.000001 -0.000001 -0.000001 0.000001 -0.000002 -0.000001 6.031448 33.302916 -17.378330 -17.619991 34.189352 16.135132 -0.002147 54.034193 -0.090100 58.158391 -18.870438 7.466559 -12.601285 8.750124 -3.004412 22.915560 -20.241819 4.183206 0.000002 -0.000000 0.000003 -12.494470 1.864668 -34.316421 1.558229 -2.470200 43.920206 -0.000002 -0.000000 -0.000002 -2.271545 -4.100017 34.584243 -3.769634 3.981814 92.001064 0.000001 -0.000003 -0.000000 3.640719 1.656378 44.080344 -6.149480 5.714888 88.057715 -0.000000 0.000001 -0.000001 0.891466 11.343705 59.174403 -5.668488 -2.205011 51.068160 0.000000 -0.000002 0.000002 0.000000 0.000002 0.000000 -0.000000 0.000000 -0.000000 0.000000 0.000002 0.000000 0.000000 0.000000 0.000001 0.000001 0.000000 0.000001 0.000000 0.000000 0.000001 0.000001 -0.000000 0.000001 -0.000001 -0.000001 -0.000000 -0.000001 -0.000001 -0.000000 -0.000001 -0.000001 -0.000000 -0.000001 -0.000001 -0.000000 -0.000001 -0.000001 -0.000000 -0.000001 -0.000001 -0.000000 -0.000001 -0.000001 -0.000000 -0.000000 -0.000001 0.000000 -0.000000 0.000001 0.000000 
-81.896408 43.937622 110.242126 55.142016 -66.049166 54.885057 -0.000001 0.000001 -0.000000 -115.407384 -37.500682 41.199110 100.707472 -16.394551 -5.749631 12.462868 -8.123748 -22.695016 -0.000000 -0.000001 0.000000 -0.000001 0.000002 -0.000001 -113.535810 43.760749 -32.213242 85.669949 31.516603 6.913844 0.719861 11.072136 37.643847 0.000000 -0.000001 0.000000 -0.000000 -0.000001 -0.000003 11.459320 0.017814 0.826176 22.913908 0.901664 1.457136 22.913879 0.901659 1.457123 0.322899 -0.618839 -0.017813 0.322942 -0.618847 -0.017793 -0.000001 -0.000000 -0.000000 0.322893 -0.618771 -0.017826 0.322926 -0.618904 -0.017791 -0.000001 -0.000000 0.000000 -0.000001 -0.000000 -0.000001 1.612235 -36.514789 1.510820 -57.880942 -26.722697 -47.173716 0.029694 -38.412451 0.048643 -24.417226 19.484624 27.448046 19.805520 13.900062 9.070415 -1.474532 2.013063 -5.769416 0.000001 0.000001 -0.000006 9.605677 11.315207 -46.002168 0.503927 0.731904 -52.491144 0.000002 0.000001 -0.000000 6.335730 13.917888 -46.737741 -0.358320 -1.699683 -21.115106 -0.000001 0.000000 -0.000001 18.082040 20.160874 -51.901265 -2.965443 -4.527070 -67.250890 -0.000000 -0.000001 -0.000000 13.208844 21.022602 -38.572578 -1.845403 -5.024021 -46.071644 0.000000 0.000000 -0.000001 -0.000001 -0.000001 0.000003 -0.000001 -0.000001 0.000003 -0.000002 -0.000001 0.000003 0.000000 -0.000001 -0.000000 0.000000 0.000000 -0.000001 0.000000 -0.000001 -0.000000 -0.000001 0.000000 -0.000001 4.851102 31.173376 -14.588854 -19.954070 39.405168 20.340385 0.032194 51.400934 -0.089567 58.710599 -16.572320 1.435778 -1.349868 11.298590 -2.203315 22.115493 -19.349636 2.340937 -0.000000 0.000000 0.000001 -11.068215 -2.003892 -24.602627 1.216473 -2.539138 36.926260 0.000001 -0.000002 -0.000000 -0.221858 -5.084022 44.081020 -3.746351 3.838459 91.950964 -0.000000 0.000000 0.000000 2.846519 1.164166 50.094281 -6.093858 5.861949 87.715892 -0.000000 0.000001 0.000001 -1.105255 9.113316 60.701831 -5.368401 -0.928821 56.960527 -0.000000 0.000001 0.000001 0.000000 -0.000001 0.000000 0.000000 -0.000002 0.000000 0.000000 -0.000002 0.000001 -0.000000 0.000000 0.000001 0.000000 0.000001 0.000002 -0.000000 0.000000 0.000001 0.000000 0.000001 0.000002 -0.000001 0.000000 -0.000001 -0.000001 0.000000 -0.000001 -0.000001 0.000000 -0.000001 -0.000001 0.000000 -0.000001 -0.000001 0.000000 -0.000001 -0.000001 0.000000 -0.000001 -0.000001 0.000000 -0.000001 -0.000001 -0.000000 0.000000 -0.000001 0.000001 -0.000000 
-82.616211 45.136147 113.197762 65.466072 -67.787100 65.105452 -0.000000 -0.000000 -0.000000 -111.640658 -39.443735 43.647542 107.600819 -20.238165 -6.268798 5.225504 -1.392671 -22.398203 0.000000 -0.000002 0.000000 0.000000 0.000003 -0.000001 -112.073139 39.652079 -33.085556 78.982737 33.080064 7.603187 2.048823 11.983297 37.737734 -0.000000 0.000001 -0.000000 0.000000 0.000000 0.000000 11.325301 -0.436533 0.672400 22.648708 0.329425 1.249119 22.648714 0.329440 1.249117 0.172588 -0.826677 0.111686 0.172603 -0.826700 0.111729 -0.000000 -0.000000 -0.000000 0.172616 -0.826723 0.111709 0.172571 -0.826691 0.111702 -0.000000 0.000000 -0.000000 -0.000000 -0.000000 -0.000000 1.252119 -36.718284 0.689326 -56.781060 -24.891060 -47.043549 0.030821 -37.776154 0.045668 -27.829420 20.457021 24.974617 20.833530 14.463718 11.150645 -1.716625 2.192827 -6.062922 -0.000003 -0.000001 -0.000004 9.931049 7.289565 -50.144729 0.354950 0.732715 -47.189032 0.000002 0.000001 -0.000000 3.215128 7.784944 -46.721264 -0.203834 -1.232222 -15.124289 -0.000002 -0.000000 -0.000001 17.080300 19.462834 -47.823345 -2.334656 -4.230682 -59.158625 -0.000000 -0.000001 0.000000 14.635046 21.234071 -41.307024 -1.605892 -4.811964 -43.177068 0.000001 -0.000003 -0.000002 -0.000001 -0.000001 0.000000 -0.000001 -0.000001 0.000000 -0.000002 -0.000001 0.000001 0.000004 -0.000001 -0.000000 0.000004 0.000000 0.000000 0.000004 -0.000001 -0.000000 0.000002 -0.000000 -0.000000 4.125450 30.015905 -12.536851 -25.212414 42.136755 26.891384 0.045937 48.943128 -0.095426 61.641303 -14.976117 -1.078315 10.446684 15.016205 -1.384221 21.473753 -18.412074 0.289390 0.000003 -0.000003 0.000001 -8.180211 -5.913706 -13.277981 0.813245 -2.490314 26.933826 0.000003 0.000000 -0.000002 2.360653 -5.577979 52.250005 -3.393016 3.663275 86.940938 0.000001 0.000000 0.000000 2.985948 -0.556147 53.387265 -5.610262 6.004017 83.317946 -0.000001 0.000001 0.000000 -2.301865 5.728699 59.509656 -5.275521 0.347482 60.535755 0.000000 -0.000000 -0.000001 -0.000001 0.000001 0.000001 -0.000001 -0.000003 0.000000 -0.000001 0.000000 0.000001 -0.000000 -0.000001 0.000000 -0.000000 -0.000001 0.000001 -0.000000 -0.000001 0.000000 -0.000000 -0.000001 0.000001 0.000001 0.000000 0.000001 0.000001 0.000000 0.000001 0.000001 0.000000 0.000001 0.000001 0.000000 0.000001 0.000001 0.000000 0.000001 0.000001 0.000000 0.000001 0.000001 0.000000 0.000001 -0.000001 -0.000001 0.000000 -0.000000 -0.000000 -0.000000 
